<?xml version="1.0" encoding="UTF-8"?>
<svg width="35px" height="35px" viewBox="0 0 35 35" version="1.1" xmlns="http://www.w3.org/2000/svg" xmlns:xlink="http://www.w3.org/1999/xlink">
    <title>icon-business-cloud</title>
    <g id="Social-Media" stroke="none" stroke-width="1" fill="none" fill-rule="evenodd">
        <g id="icon-business-cloud" fill-rule="nonzero">
            <g id="cloud-duotone">
                <polygon id="Path" fill-opacity="0" fill="#C3C1C1" points="0 0 35 0 35 35 0 35"></polygon>
                <path d="M17.5,5.83333333 C13.1129358,5.84824288 9.41506782,9.10960028 8.85208333,13.4604167 C5.35016095,14.2511112 2.87665411,17.3809786 2.91666667,20.9708333 C2.84966508,25.3501539 6.28433852,28.985345 10.6604167,29.1666667 L24.7916667,29.1666667 C28.6134968,29.3570456 31.8714739,26.4248663 32.0833333,22.6041667 C31.9335331,19.3413845 29.483784,16.6466606 26.25,16.1875 L26.25,14.5833333 C26.25,9.75084177 22.3324916,5.83333333 17.5,5.83333333 Z" id="Path" fill="#E8561C"></path>
                <path d="M17.5,8.75 C20.721661,8.75 23.3333333,11.3616723 23.3333333,14.5833333 L23.3333333,17.5 C23.3333333,18.3054153 23.9862514,18.9583333 24.7916667,18.9583333 C26.9992034,18.7803759 28.9436264,20.4007284 29.1666667,22.6041667 C28.9436264,24.807605 26.9992034,26.4279574 24.7916667,26.25 L10.6604167,26.25 C7.89539458,26.0708197 5.76491631,23.7408102 5.83333333,20.9708333 C5.84486635,18.5855874 7.57716449,16.5573807 9.93125,16.1729167 L10.3395833,16.1729167 C11.093343,16.1048082 11.6697375,15.4714076 11.6666667,14.7145833 L11.6666667,14.5833333 C11.6666667,11.3616723 14.278339,8.75 17.5,8.75 Z" id="Path" fill="#F4CC7D"></path>
            </g>
        </g>
    </g>
</svg>