<?xml version="1.0" encoding="UTF-8"?>
<svg width="22px" height="22px" viewBox="0 0 22 22" version="1.1" xmlns="http://www.w3.org/2000/svg">
    <title>icon_time</title>
    <g id="Mockup-1.0" stroke="none" stroke-width="1" fill="none" fill-rule="evenodd">
        <g id="icon_time" fill-rule="nonzero">
            <circle id="Oval" fill="#FFFFFF" cx="11" cy="11" r="11"></circle>
            <path d="M11,0 C4.92486775,0 0,4.92486775 0,11 C0,17.0751322 4.92486775,22 11,22 C17.0751322,22 22,17.0751322 22,11 C22,8.08261861 20.8410748,5.28472557 18.7781746,3.22182541 C16.7152744,1.15892524 13.9173814,0 11,0 Z M12,19.94 C12,19.3877153 11.5522847,18.94 11,18.94 C10.4477153,18.94 10,19.3877153 10,19.94 C5.80053668,19.4703285 2.49333361,16.1423254 2.05,11.94 C2.60228475,11.94 3.05,11.4922847 3.05,10.94 C3.05,10.3877153 2.60228475,9.94 2.05,9.94 C2.5196715,5.74053668 5.8476746,2.43333361 10.05,1.99 C10.05,2.54228475 10.4977153,2.99 11.05,2.99 C11.6022847,2.99 12.05,2.54228475 12.05,1.99 C16.2689514,2.43771525 19.6022847,5.77104858 20.05,9.99 C19.4977153,9.99 19.05,10.4377153 19.05,10.99 C19.05,11.5422847 19.4977153,11.99 20.05,11.99 C19.5759802,16.2061842 16.2217798,19.5187175 12,19.94 Z"
                  id="Shape" fill="#324A5E"></path>
            <path d="M6,17.0000167 C5.73419702,17.0015368 5.47871883,16.8971865 5.29,16.71 C5.10068735,16.5222334 4.99420168,16.2666375 4.99420168,16 C4.99420168,15.7333625 5.10068735,15.4777666 5.29,15.29 L10,10.59 L10,6 C10,5.44771525 10.4477153,5 11,5 C11.5522847,5 12.0000167,5.44771525 12.0000167,6 L12.0000167,11 C12.0015368,11.265803 11.8971865,11.5212812 11.71,11.71 L6.71,16.71 C6.52128117,16.8971865 6.26580298,17.0015368 6,17.0000167 Z"
                  id="Path" fill="#FFD05B"></path>
        </g>
    </g>
</svg>