<?xml version="1.0" encoding="UTF-8"?>
<svg width="35px" height="35px" viewBox="0 0 35 35" version="1.1" xmlns="http://www.w3.org/2000/svg" xmlns:xlink="http://www.w3.org/1999/xlink">
    <title>icon-business-audit</title>
    <g id="Social-Media" stroke="none" stroke-width="1" fill="none" fill-rule="evenodd">
        <g id="icon-business-audit" fill-rule="nonzero">
            <g id="book-duotone">
                <polygon id="Path" fill-opacity="0" fill="#C3C1C1" points="0 0 35 0 35 35 0 35"></polygon>
                <path d="M8.75,2.91641694 C5.52833896,2.91641694 2.91666667,5.52833896 2.91666667,8.75 L2.91666667,23.3333333 C2.91666667,26.5549944 5.52833896,29.1666667 8.75,29.1666667 L13.125,29.1666667 C13.9180387,29.238181 14.656149,29.6020382 15.1958333,30.1875 C15.5579227,30.5318202 15.8942434,30.9022604 16.2020833,31.2958333 C16.4532137,31.7805827 16.9540631,32.0844689 17.5,32.0833333 C18.0681407,32.09577 18.591761,31.7770447 18.8416667,31.2666667 C19.1218329,30.8859313 19.4393864,30.5341798 19.7895833,30.2166667 C20.3333057,29.623918 21.0750233,29.2504658 21.875,29.1666667 L26.25,29.1666667 C29.471661,29.1666667 32.0833333,26.5549944 32.0833333,23.3333333 L32.0833333,8.75 C32.0833333,5.52833896 29.471661,2.91641694 26.25,2.91641694 L21.875,2.91641694 C20.1925451,2.90089615 18.5898934,3.63277375 17.5,4.91458333 C16.3968531,3.65042464 14.8027951,2.92247148 13.125,2.91641694 L8.75,2.91641694 Z" id="Path" fill="#E8561C"></path>
                <path d="M8.75,5.83333333 L13.125,5.83333333 C14.7358305,5.83333333 16.0416667,7.13916948 16.0416667,8.75 L16.0416667,27.2125 C15.1839737,26.6143726 14.1702288,26.2798368 13.125,26.25 L8.75,26.25 C7.13916948,26.25 5.83333333,24.9441639 5.83333333,23.3333333 L5.83333333,8.75 C5.83333333,7.13916948 7.13916948,5.83333333 8.75,5.83333333 Z" id="Path" fill="#F4CC7D"></path>
                <path d="M21.875,5.83333333 L26.25,5.83333333 C27.8608305,5.83333333 29.1666667,7.13916948 29.1666667,8.75 L29.1666667,23.3333333 C29.1666667,24.9441639 27.8608305,26.25 26.25,26.25 L21.875,26.25 C20.8302494,26.2695152 19.8149381,26.5994913 18.9583333,27.1979167 L18.9583333,8.75 C18.9583333,7.13916948 20.2641695,5.83333333 21.875,5.83333333 Z" id="Path" fill="#F4CC7D"></path>
            </g>
        </g>
    </g>
</svg>