<?xml version="1.0" encoding="UTF-8"?>
<svg width="35px" height="35px" viewBox="0 0 35 35" version="1.1" xmlns="http://www.w3.org/2000/svg" xmlns:xlink="http://www.w3.org/1999/xlink">
    <title>icon-business-bot</title>
    <g id="Social-Media" stroke="none" stroke-width="1" fill="none" fill-rule="evenodd">
        <g id="icon-business-bot" fill-rule="nonzero">
            <g id="chat-dots-duotone">
                <polygon id="Path" fill-opacity="0" fill="#C3C1C1" points="0 0 35 0 35 35 0 35"></polygon>
                <path d="M17.5,2.91666667 C9.4458474,2.91666667 2.91666667,9.4458474 2.91666667,17.5 C2.94546236,19.1825556 3.2357361,20.8503996 3.77708333,22.44375 L3.325,24.4270833 C2.1,29.3416667 5.55625,32.9 10.4854167,31.71875 L12.4833333,31.2375 C14.0986055,31.7896935 15.792968,32.0753709 17.5,32.0833333 C25.5541525,32.0833333 32.0833331,25.5541525 32.0833331,17.5 C32.0833331,9.44584748 25.5541525,2.91666667 17.5,2.91666667 Z" id="Path" fill="#E3612E"></path>
                <path d="M17.5,5.83333333 C11.0566779,5.83333333 5.83333333,11.0566779 5.83333333,17.5 C5.83776941,18.9958122 6.11450402,20.478319 6.65,21.875 C6.74445867,22.1540281 6.74445867,22.4563885 6.65,22.7354167 L6.11041667,25.15625 C5.39583333,27.9708333 6.97083333,29.53125 9.75625,28.8458333 L12.2208333,28.2625 C12.498666,28.1610411 12.8034173,28.1610411 13.08125,28.2625 C14.4861919,28.8325281 15.9840746,29.1390255 17.5,29.1666667 C23.9433221,29.1666667 29.1666667,23.9433221 29.1666667,17.5 C29.1666667,11.0566779 23.9433221,5.83333333 17.5,5.83333333 Z M11.6666667,16.0416667 C12.4720819,16.0416667 13.125,16.6945847 13.125,17.5 C13.125,18.3054153 12.4720819,18.9583333 11.6666667,18.9583333 C10.8612514,18.9583333 10.2083333,18.3054153 10.2083333,17.5 C10.2083333,16.6945847 10.8612514,16.0416667 11.6666667,16.0416667 Z M17.5,16.0416667 C18.3054153,16.0416667 18.9583333,16.6945847 18.9583333,17.5 C18.9583333,18.3054153 18.3054153,18.9583333 17.5,18.9583333 C16.6945847,18.9583333 16.0416667,18.3054153 16.0416667,17.5 C16.0416667,16.6945847 16.6945847,16.0416667 17.5,16.0416667 Z M23.3333333,16.0416667 C24.1387486,16.0416667 24.7916667,16.6945847 24.7916667,17.5 C24.7916667,18.3054153 24.1387486,18.9583333 23.3333333,18.9583333 C22.5279181,18.9583333 21.875,18.3054153 21.875,17.5 C21.875,16.6945847 22.5279181,16.0416667 23.3333333,16.0416667 Z" id="Shape" fill="#F4CC7D"></path>
            </g>
        </g>
    </g>
</svg>