<?xml version="1.0" encoding="UTF-8"?>
<svg width="35px" height="35px" viewBox="0 0 35 35" version="1.1" xmlns="http://www.w3.org/2000/svg" xmlns:xlink="http://www.w3.org/1999/xlink">
    <title>icon-business-backup</title>
    <g id="Social-Media" stroke="none" stroke-width="1" fill="none" fill-rule="evenodd">
        <g id="icon-business-backup" fill-rule="nonzero">
            <g id="files-duotone">
                <polygon id="Path" fill-opacity="0.01" fill="#C3C1C1" points="0 0 35 0 35 35 0 35"></polygon>
                <path d="M14.5833333,2.91666667 C9.07034791,3.20741831 4.66575165,7.61201458 4.375,13.125 L4.375,21.4229167 C4.49346716,24.1813438 6.80692481,26.3323396 9.56666667,26.25 L10.2083333,26.25 L10.2083333,27.2125 C10.3034501,29.98823 12.6238486,32.1652331 15.4,32.0833333 L25.4333333,32.0833333 C28.2094847,32.1652331 30.5298832,29.98823 30.625,27.2125 L30.625,13.6208333 C30.5298832,10.8451033 28.2094847,8.66810028 25.4333333,8.75 L24.7916667,8.75 L24.7916667,7.7875 C24.6965499,5.01177001 22.3761514,2.83476695 19.6,2.91666667 L14.5833333,2.91666667 Z M13.125,6.00833333 L13.125,9.7125 C13.1215147,10.2370731 12.8867069,10.7333714 12.4833333,11.06875 C12.029647,11.4599324 11.4490168,11.6724845 10.85,11.6666667 L7.46666667,11.6666667 C8.28022867,8.94843325 10.4067666,6.82189534 13.125,6.00833333 L13.125,6.00833333 Z M24.7916667,11.6666667 L25.4333333,11.6666667 C26.5996069,11.5828668 27.6152348,12.4552652 27.7083333,13.6208333 L27.7083333,27.2125 C27.6152348,28.3780682 26.5996069,29.2504665 25.4333333,29.1666667 L15.4,29.1666667 C14.2337264,29.2504665 13.2180985,28.3780682 13.125,27.2125 L13.125,26.25 L19.6,26.25 C22.3761514,26.3318997 24.6965499,24.1548967 24.7916667,21.3791667 L24.7916667,11.6666667 Z" id="Shape" fill="#E8561C"></path>
                <path d="M16.0416667,5.83333333 L19.6,5.83333333 C20.7662736,5.74953348 21.7819015,6.62193182 21.875,7.7875 L21.875,21.3791667 C21.7819015,22.5447348 20.7662736,23.4171332 19.6,23.3333333 L9.56666667,23.3333333 C8.40039307,23.4171332 7.38476515,22.5447348 7.29166667,21.3791667 L7.29166667,14.5833333 L10.85,14.5833333 C13.6261514,14.6652331 15.9465499,12.48823 16.0416667,9.7125 L16.0416667,5.83333333 Z" id="Path" fill="#F4CC7D"></path>
            </g>
        </g>
    </g>
</svg>