<?xml version="1.0" encoding="UTF-8"?>
<svg width="22px" height="21px" viewBox="0 0 22 21" version="1.1" xmlns="http://www.w3.org/2000/svg">
    <title>artboard</title>
    <g id="Mockup-1.0" stroke="none" stroke-width="1" fill="none" fill-rule="evenodd">
        <g id="artboard" fill-rule="nonzero">
            <path d="M15,19 L12,19 L12,15 C12,14.4477153 11.5522847,14 11,14 C10.4477153,14 10,14.4477153 10,15 L10,19 L7,19 C6.44771525,19 6,19.4477153 6,20 C6,20.5522847 6.44771525,21 7,21 L15,21 C15.5522847,21 16,20.5522847 16,20 C16,19.4477153 15.5522847,19 15,19 Z"
                  id="Path" fill="#263238"></path>
            <rect id="Rectangle" fill="#FF92C4" x="0" y="0" width="22" height="16" rx="1"></rect>
            <path d="M11,11.0000167 C10.734197,11.0015368 10.4787188,10.8971865 10.29,10.71 L8.29,8.71 C7.89787783,8.31787783 7.89787783,7.68212217 8.29,7.29 C8.68212217,6.89787783 9.31787783,6.89787783 9.71,7.29 L11,8.59 L13.29,6.29 C13.6821222,5.89787783 14.3178778,5.89787783 14.71,6.29 C15.1021222,6.68212217 15.1021222,7.31787783 14.71,7.71 L11.71,10.71 C11.5212812,10.8971865 11.265803,11.0015368 11,11.0000167 Z"
                  id="Path" fill="#FC4C66"></path>
            <path d="M21,16 L1,16 C0.44771525,16 0,15.5522847 0,15 L0,1 C0,0.44771525 0.44771525,0 1,0 L21,0 C21.5522847,0 22,0.44771525 22,1 L22,15 C22,15.5522847 21.5522847,16 21,16 Z M2,14 L20,14 L20,2 L2,2 L2,14 Z"
                  id="Shape" fill="#C16F98"></path>
        </g>
    </g>
</svg>