<?xml version="1.0" encoding="UTF-8"?>
<svg width="38px" height="31px" viewBox="0 0 38 31" version="1.1" xmlns="http://www.w3.org/2000/svg" xmlns:xlink="http://www.w3.org/1999/xlink">
    <title>menu-cloud</title>
    <g id="Social-Media" stroke="none" stroke-width="1" fill="none" fill-rule="evenodd">
        <g id="Artboard" transform="translate(-20.000000, -24.000000)" fill-rule="nonzero">
            <g id="menu-cloud" transform="translate(20.915703, 24.833333)">
                <path d="M18.2303714,-3.10862447e-14 C12.7465411,0.0186369283 8.12420616,4.09533369 7.42047554,9.53385417 C3.04307257,10.5222223 -0.0488109861,14.4345566 0.00120470965,18.921875 C-0.0825472722,24.3960257 4.21079453,28.9400145 9.68089221,29.1666667 L27.3449547,29.1666667 C32.1222424,29.4046404 36.1947137,25.7394162 36.459538,20.9635417 C36.2722877,16.885064 33.2101014,13.516659 29.1678714,12.9427083 L29.1678714,10.9375 C29.1678714,4.89688555 24.2709858,-3.10862447e-14 18.2303714,-3.10862447e-14 Z" id="Path" fill="#384664"></path>
                <path d="M18.2303714,3.64583333 C22.2574477,3.64583333 25.522038,6.9104237 25.522038,10.9375 L25.522038,14.5833333 C25.522038,15.5901024 26.3381856,16.40625 27.3449547,16.40625 C30.1043756,16.1838032 32.5349043,18.2092438 32.8137047,20.9635417 C32.5349043,23.7178395 30.1043756,25.7432801 27.3449547,25.5208333 L9.68089221,25.5208333 C6.22461461,25.2968579 3.56151676,22.3843461 3.64703804,18.921875 C3.66145432,15.9403176 5.82682699,13.4050592 8.76943388,12.9244792 L9.27985054,12.9244792 C10.2220501,12.8393435 10.9425433,12.0475928 10.9387047,11.1015625 L10.9387047,10.9375 C10.9387047,6.9104237 14.2032951,3.64583333 18.2303714,3.64583333 Z" id="Path" fill="#608BC1"></path>
            </g>
        </g>
    </g>
</svg>