<?xml version="1.0" encoding="UTF-8"?>
<svg width="34px" height="30px" viewBox="0 0 34 30" version="1.1" xmlns="http://www.w3.org/2000/svg" xmlns:xlink="http://www.w3.org/1999/xlink">
    <title>menu-group</title>
    <g id="Social-Media" stroke="none" stroke-width="1" fill="none" fill-rule="evenodd">
        <g id="menu-group" transform="translate(-23.000000, -25.000000)" fill-rule="nonzero">
            <g transform="translate(23.000000, 25.000000)">
                <path d="M29.2564103,-5.79215495e-14 L4.07692308,-5.79215495e-14 C1.89138648,-0.0575339839 0.0697684485,1.6609736 0,3.84615385 L0,21.7948718 C0.0697684485,23.980052 1.89138648,25.6985596 4.07692308,25.6410256 L11.974359,25.6410256 L15.8205128,29.1538462 C16.3122476,29.6098938 17.0723677,29.6098938 17.5641026,29.1538462 L21.4102564,25.6410256 L29.4871795,25.6410256 L29.7564103,25.6410256 C31.7521363,25.4527477 33.2901276,23.7989937 33.3333333,21.7948718 L33.3333333,3.84615385 C33.2635649,1.6609736 31.4419469,-0.0575339839 29.2564103,-5.79215495e-14 Z" id="Path" fill="#F36E42"></path>
                <path d="M16.6666667,29.4871795 C16.3456155,29.4835897 16.0364196,29.3653677 15.7948718,29.1538462 L11.9487179,25.6410256 L4.07692308,25.6410256 C1.89138648,25.6985596 0.0697684485,23.980052 0,21.7948718 L0,3.84615385 C0.0697684485,1.6609736 1.89138648,-0.0575339839 4.07692308,-2.19561348e-13 L29.2564103,-2.19561348e-13 C31.4419469,-0.0575339839 33.2635649,1.6609736 33.3333333,3.84615385 L33.3333333,21.7948718 C33.2901276,23.7989937 31.7521363,25.4527477 29.7564103,25.6410256 L29.4871795,25.6410256 L21.3589744,25.6410256 L17.5128205,29.1538462 C17.2779787,29.3597528 16.9788466,29.4775927 16.6666667,29.4871795 Z M4.07692308,2.56410256 C3.30660406,2.50491898 2.63206776,3.07655992 2.56410256,3.84615385 L2.56410256,21.7948718 C2.63206776,22.5644657 3.30660406,23.1361067 4.07692308,23.0769231 L12.474359,23.0769231 C12.7920972,23.0777526 13.0982073,23.1965416 13.3333333,23.4102564 L16.6666667,26.4615385 L20,23.4102564 C20.235126,23.1965416 20.5412361,23.0777526 20.8589744,23.0769231 L29.2564103,23.0769231 C30.0267293,23.1361067 30.7012656,22.5644657 30.7692308,21.7948718 L30.7692308,3.84615385 C30.7012656,3.07655992 30.0267293,2.50491898 29.2564103,2.56410256 L4.07692308,2.56410256 Z" id="Shape" fill="#702F1D"></path>
            </g>
        </g>
    </g>
</svg>