<?xml version="1.0" encoding="UTF-8"?>
<svg width="48px" height="31px" viewBox="0 0 48 31" version="1.1" xmlns="http://www.w3.org/2000/svg" xmlns:xlink="http://www.w3.org/1999/xlink">
    <title>menu-payment-disabled</title>
    <g id="Social-Media" stroke="none" stroke-width="1" fill="none" fill-rule="evenodd">
        <g id="Artboard" transform="translate(-16.000000, -25.000000)" fill-rule="nonzero">
            <g id="menu-payment-disabled" transform="translate(16.780748, 25.407391)">
                <rect id="Rectangle" fill="#DDDDDD" x="0" y="0" width="46.1538462" height="29.6703297" rx="1"></rect>
                <path d="M8.24175824,11.5384615 C6.42103929,11.5384615 4.94505495,10.0624772 4.94505495,8.24175824 C4.94505495,6.42103929 6.42103929,4.94505495 8.24175824,4.94505495 C10.0624772,4.94505495 11.5384615,6.42103929 11.5384615,8.24175824 C11.5384615,10.0624772 10.0624772,11.5384615 8.24175824,11.5384615 Z" id="Shape" fill="#AAAAAA"></path>
                <circle id="Oval" fill="#AAAAAA" cx="23.0769231" cy="14.8351648" r="8.24175824"></circle>
                <path d="M37.9120879,24.7252747 C36.091369,24.7252747 34.6153846,23.2492904 34.6153846,21.4285714 C34.6153846,19.6078525 36.091369,18.1318681 37.9120879,18.1318681 C39.7328069,18.1318681 41.2087912,19.6078525 41.2087912,21.4285714 C41.2087912,23.2492904 39.7328069,24.7252747 37.9120879,24.7252747 Z" id="Shape" fill="#AAAAAA"></path>
                <path d="M44.5054945,29.6703297 L1.64835165,29.6703297 C0.737992171,29.6703297 0,28.9323375 0,28.021978 L0,1.64835165 C0,0.737992171 0.737992171,0 1.64835165,0 L44.5054945,0 C45.415854,0 46.1538462,0.737992171 46.1538462,1.64835165 L46.1538462,28.021978 C46.1538462,28.9323375 45.415854,29.6703297 44.5054945,29.6703297 Z M3.2967033,26.3736264 L42.8571429,26.3736264 L42.8571429,3.2967033 L3.2967033,3.2967033 L3.2967033,26.3736264 Z" id="Shape" fill="#AAAAAA"></path>
            </g>
        </g>
    </g>
</svg>