<?xml version="1.0" encoding="UTF-8"?>
<svg width="18px" height="18px" viewBox="0 0 18 18" version="1.1" xmlns="http://www.w3.org/2000/svg">
    <title>shape</title>
    <g id="Mockup-1.0" stroke="none" stroke-width="1" fill="none" fill-rule="evenodd">
        <g id="shape" fill-rule="nonzero">
            <rect id="Rectangle" fill="#FFDB83" x="0" y="0" width="8" height="8" rx="2"></rect>
            <rect id="Rectangle" fill="#FF6961" x="0" y="10" width="8" height="8" rx="2"></rect>
            <rect id="Rectangle" fill="#00C7CE" x="10" y="0" width="8" height="8" rx="2"></rect>
            <rect id="Rectangle" fill="#FCAD2D" x="10" y="10" width="8" height="8" rx="2"></rect>
            <path d="M6,8 L2,8 C0.8954305,8 0,7.1045695 0,6 L0,2 C0,0.8954305 0.8954305,0 2,0 L6,0 C7.1045695,0 8,0.8954305 8,2 L8,6 C8,7.1045695 7.1045695,8 6,8 Z M2,2 L2,6 L6,6 L6,2 L2,2 Z"
                  id="Shape" fill="#EAC27A"></path>
            <path d="M6,18 L2,18 C0.8954305,18 0,17.1045695 0,16 L0,12 C0,10.8954305 0.8954305,10 2,10 L6,10 C7.1045695,10 8,10.8954305 8,12 L8,16 C8,17.1045695 7.1045695,18 6,18 Z M2,12 L2,16 L6,16 L6,12 L2,12 Z"
                  id="Shape" fill="#EF615E"></path>
            <path d="M16,8 L12,8 C10.8954305,8 10,7.1045695 10,6 L10,2 C10,0.8954305 10.8954305,0 12,0 L16,0 C17.1045695,0 18,0.8954305 18,2 L18,6 C18,7.1045695 17.1045695,8 16,8 Z M12,2 L12,6 L16,6 L16,2 L12,2 Z"
                  id="Shape" fill="#06B5AC"></path>
            <path d="M16,18 L12,18 C10.8954305,18 10,17.1045695 10,16 L10,12 C10,10.8954305 10.8954305,10 12,10 L16,10 C17.1045695,10 18,10.8954305 18,12 L18,16 C18,17.1045695 17.1045695,18 16,18 Z M12,12 L12,16 L16,16 L16,12 L12,12 Z" id="Shape" fill="#ED9F2E"></path>
        </g>
    </g>
</svg>
