<?xml version="1.0" encoding="UTF-8"?>
<svg width="30px" height="29px" viewBox="0 0 30 29" version="1.1" xmlns="http://www.w3.org/2000/svg">
    <title>Combined Shape</title>
    <g id="Mockup-1.0" stroke="none" stroke-width="1" fill="none" fill-rule="evenodd">
        <path d="M14.9413852,0.615083591 C22.9053,0.615083591 29.383854,5.87267932 29.383854,12.3351754 C29.383854,14.9216134 28.3813393,17.2508474 26.288268,19.5460274 L26.288268,19.5460274 L26.0904186,19.7696321 C22.9728851,23.212781 16.4501496,27.2953511 14.9413852,27.9310482 C13.4003753,28.5805648 13.6276785,27.5176943 13.690526,27.1525143 C13.7270717,26.935455 13.8965108,25.9163287 13.8965108,25.9163287 C13.9452383,25.5475494 13.9956271,24.975554 13.8499981,24.610374 C13.6880342,24.2083714 13.0479309,23.999618 12.5775436,23.8982868 C5.63718502,22.9807685 0.499193358,18.1287745 0.499193358,12.3351754 C0.499193358,5.87267932 6.97857793,0.615083591 14.9413852,0.615083591 Z M12.0070985,9.21228983 L10.9940631,9.21228983 L10.9295608,9.21971907 C10.8052493,9.24886942 10.7124951,9.36037106 10.7124951,9.49302716 L10.7124951,9.49302716 L10.7124951,15.7860841 L10.7199413,15.8504531 C10.7491595,15.9744741 10.8609323,16.0668214 10.9940631,16.0668214 L10.9940631,16.0668214 L12.0070985,16.0668214 L12.0715854,16.0594067 C12.1958388,16.0303096 12.2883896,15.9189775 12.2883896,15.7860841 L12.2883896,15.7860841 L12.2883896,9.49302716 L12.2809587,9.4287453 C12.2517987,9.3048406 12.1402292,9.21228983 12.0070985,9.21228983 L12.0070985,9.21228983 Z M14.57745,9.21284355 L13.5547244,9.21228983 L13.4902222,9.21971907 C13.3659107,9.24886942 13.2731565,9.36037106 13.2731565,9.49302716 L13.2731565,9.49302716 L13.2731565,15.7860841 L13.2806027,15.8504531 C13.3098208,15.9744741 13.4215937,16.0668214 13.5547244,16.0668214 L13.5547244,16.0668214 L14.567483,16.0668214 L14.6320724,16.0594067 C14.7565001,16.0303096 14.8490509,15.9189775 14.8490509,15.7860841 L14.8490509,15.7860841 L14.8490509,12.0484568 L17.7364372,15.9480479 L17.7695567,15.9865317 L17.7695567,15.9865317 L17.8078674,16.0175401 C17.808698,16.0180938 17.8098054,16.0189244 17.810636,16.019755 C17.8164501,16.0233542 17.8222642,16.0269534 17.8280783,16.0302757 L17.8280783,16.0302757 L17.8426481,16.0379586 L17.8632397,16.0468874 L17.8673926,16.048514 C17.8781902,16.0524246 17.8842811,16.0543627 17.8906489,16.0563007 C17.8920332,16.0563007 17.8934175,16.0568544 17.8948019,16.0571313 C17.9177813,16.0632222 17.9418683,16.0668214 17.9667858,16.0668214 L17.9667858,16.0668214 L18.9798212,16.0668214 L19.0443953,16.0594067 C19.1687649,16.0303096 19.2611123,15.9189775 19.2611123,15.7860841 L19.2611123,15.7860841 L19.2611123,9.49302716 L19.2536959,9.4287453 C19.2245892,9.3048406 19.1131893,9.21228983 18.9798212,9.21228983 L18.9798212,9.21228983 L17.9667858,9.21228983 L17.9022989,9.21971907 C17.7780455,9.24886942 17.6854947,9.36037106 17.6854947,9.49302716 L17.6854947,9.49302716 L17.6854947,13.2317619 L14.8017076,9.33715426 L14.7909446,9.32237679 L14.7909446,9.32237679 L14.7778975,9.30697638 L14.7695571,9.29794378 L14.7695571,9.29794378 L14.761009,9.28953412 L14.761009,9.28953412 C14.751042,9.2803977 14.7460585,9.27624478 14.7407981,9.27236872 C14.7385832,9.27015383 14.7360915,9.26849267 14.7335997,9.26655464 C14.7286162,9.2632323 14.7239096,9.2596331 14.7189261,9.25658763 C14.7161575,9.2546496 14.7133889,9.25298843 14.7103434,9.25160413 L14.7028681,9.24710513 C14.6923474,9.24163712 14.6895788,9.23997595 14.6865333,9.23886851 C14.681273,9.23637676 14.6760126,9.23388501 14.6704754,9.23194698 C14.667153,9.23083953 14.6643844,9.22973209 14.6613389,9.22862464 C14.6558017,9.22668661 14.6502645,9.22474858 14.6444504,9.22336428 C14.6414049,9.22225683 14.6380826,9.22170311 14.6347603,9.22059566 L14.6347603,9.22059566 L14.6187023,9.21699647 L14.6127498,9.21620049 C14.6018138,9.21450472 14.5968303,9.21422785 14.5918468,9.21367413 C14.5871401,9.21312041 14.5824335,9.21312041 14.57745,9.21284355 L14.57745,9.21284355 Z M6.5315858,9.21212474 L5.51827351,9.21212474 L5.45378663,9.2195556 C5.32953322,9.24871563 5.23698245,9.36028508 5.23698245,9.4934158 L5.23698245,9.4934158 L5.23698245,15.785919 L5.24660082,15.8587028 C5.25913135,15.9050924 5.28331057,15.9466831 5.31561105,15.9802756 L5.31561105,15.9802756 L5.32364003,15.9883046 L5.35989177,16.017879 C5.38563645,16.0355738 5.41438901,16.0490637 5.44527442,16.0573764 L5.44527442,16.0573764 L5.51827351,16.0669332 L9.56515486,16.0669332 L9.62961107,16.059487 C9.75374825,16.0302689 9.8458922,15.918496 9.8458922,15.7853653 L9.8458922,15.7853653 L9.8458922,14.7723299 L9.83849201,14.707843 C9.80944822,14.5835896 9.69828559,14.4910388 9.56515486,14.4910388 L9.56515486,14.4910388 L6.8126,14.4910388 L6.8126,9.4934158 L6.80516995,9.42892892 C6.77601476,9.30467551 6.66447922,9.21212474 6.5315858,9.21212474 L6.5315858,9.21212474 Z M24.5741644,9.21212347 L20.5267293,9.21212347 L20.4536174,9.22194692 C20.4068791,9.23482609 20.3644886,9.25992818 20.3284966,9.29462813 L20.3284966,9.29462813 C20.2919509,9.33320413 20.2679563,9.3746718 20.2555283,9.42089738 L20.2555283,9.42089738 L20.245992,9.49369139 L20.245992,15.7859177 L20.2556103,15.8587015 C20.2681409,15.9050911 20.2923201,15.9466818 20.3246206,15.9802744 L20.3246206,15.9802744 L20.3326495,15.9883033 L20.3886268,16.0302222 C20.4293972,16.0535195 20.4765251,16.0669319 20.5267293,16.0669319 L20.5267293,16.0669319 L24.5741644,16.0669319 L24.6386206,16.0594865 C24.7627578,16.0302732 24.8549017,15.9185343 24.8549017,15.7856409 L24.8549017,15.7856409 L24.8549017,14.7723286 L24.8475015,14.7079289 C24.8184577,14.5837917 24.7072951,14.4910375 24.5741644,14.4910375 L24.5741644,14.4910375 L21.8218864,14.4910375 L21.8218864,13.4273365 L24.5741644,13.4273365 L24.6386206,13.4199056 C24.7627578,13.3907456 24.8549017,13.2791761 24.8549017,13.1460454 L24.8549017,13.1460454 L24.8549017,12.13301 L24.8475015,12.0685078 C24.8184577,11.9441962 24.7072951,11.8514421 24.5741644,11.8514421 L24.5741644,11.8514421 L21.8218864,11.8514421 L21.8218864,10.7880179 L24.5741644,10.7880179 L24.6386206,10.7806015 C24.7627578,10.7514948 24.8549017,10.6400949 24.8549017,10.5067268 L24.8549017,10.5067268 L24.8549017,9.49369139 L24.8475015,9.42918917 C24.8184577,9.30487765 24.7072951,9.21212347 24.5741644,9.21212347 L24.5741644,9.21212347 Z"
              id="Combined-Shape" fill="#FFFFFF" fill-rule="nonzero"></path>
    </g>
</svg>
