<?xml version="1.0" encoding="UTF-8"?>
<svg width="22px" height="22px" viewBox="0 0 22 22" version="1.1" xmlns="http://www.w3.org/2000/svg">
    <title>icon_list</title>
    <g id="Mockup-1.0" stroke="none" stroke-width="1" fill="none" fill-rule="evenodd">
        <g id="icon_list" fill-rule="nonzero">
            <rect id="Rectangle" fill="#386895" x="0" y="0" width="6" height="6" rx="1"></rect>
            <rect id="Rectangle" fill="#386895" x="0" y="8" width="6" height="6" rx="1"></rect>
            <rect id="Rectangle" fill="#386895" x="0" y="16" width="6" height="6" rx="1"></rect>
            <path d="M5,6 L1,6 C0.44771525,6 0,5.55228475 0,5 L0,1 C0,0.44771525 0.44771525,0 1,0 L5,0 C5.55228475,0 6,0.44771525 6,1 L6,5 C6,5.55228475 5.55228475,6 5,6 Z M2,4 L4,4 L4,2 L2,2 L2,4 Z"
                  id="Shape" fill="#4686B2"></path>
            <path d="M5,14 L1,14 C0.44771525,14 0,13.5522847 0,13 L0,9 C0,8.44771525 0.44771525,8 1,8 L5,8 C5.55228475,8 6,8.44771525 6,9 L6,13 C6,13.5522847 5.55228475,14 5,14 Z M2,12 L4,12 L4,10 L2,10 L2,12 Z"
                  id="Shape" fill="#4686B2"></path>
            <path d="M5,22 L1,22 C0.44771525,22 0,21.5522847 0,21 L0,17 C0,16.4477153 0.44771525,16 1,16 L5,16 C5.55228475,16 6,16.4477153 6,17 L6,21 C6,21.5522847 5.55228475,22 5,22 Z M2,20 L4,20 L4,18 L2,18 L2,20 Z"
                  id="Shape" fill="#4686B2"></path>
            <path d="M21,12 L9,12 C8.44771525,12 8,11.5522847 8,11 C8,10.4477153 8.44771525,10 9,10 L21,10 C21.5522847,10 22,10.4477153 22,11 C22,11.5522847 21.5522847,12 21,12 Z"
                  id="Path" fill="#585759"></path>
            <path d="M21,20 L9,20 C8.44771525,20 8,19.5522847 8,19 C8,18.4477153 8.44771525,18 9,18 L21,18 C21.5522847,18 22,18.4477153 22,19 C22,19.5522847 21.5522847,20 21,20 Z" id="Path" fill="#585759"></path>
            <path d="M21,4 L9,4 C8.44771525,4 8,3.55228475 8,3 C8,2.44771525 8.44771525,2 9,2 L21,2 C21.5522847,2 22,2.44771525 22,3 C22,3.55228475 21.5522847,4 21,4 Z" id="Path" fill="#585759"></path>
        </g>
    </g>
</svg>
