<?xml version="1.0" encoding="UTF-8"?>
<svg width="20px" height="23px" viewBox="0 0 20 23" version="1.1" xmlns="http://www.w3.org/2000/svg">
    <title>icon_security</title>
    <g id="Mockup-1.0" stroke="none" stroke-width="1" fill="none" fill-rule="evenodd">
        <g id="icon_security" fill-rule="nonzero">
            <path d="M19.49,5.13 L10.49,0.13 C10.1805989,-0.048632795 9.79940108,-0.048632795 9.49,0.13 L0.49,5.13 C0.18321162,5.31187262 -0.00349411817,5.64337057 -4.81967139e-05,6 L-4.81967139e-05,11.81 C-4.81967139e-05,16.33 3.28,20.48 8.78,22.91 C8.9087602,22.9686689 9.04850513,22.9993446 9.19,23 L10.81,23 C10.9514949,22.9993446 11.0912398,22.9686689 11.22,22.91 C16.72,20.48 20,16.33 20,11.81 L20,6 C19.9993783,5.63923592 19.8044869,5.30677412 19.49,5.13 Z"
                  id="Path" fill="#FFE138"></path>
            <path d="M10.81,23 L9.19,23 C9.04850513,22.9993446 8.9087602,22.9686689 8.78,22.91 C3.28,20.48 1.77635684e-15,16.33 1.77635684e-15,11.81 L1.77635684e-15,6 C0.000621693938,5.63923592 0.195513093,5.30677412 0.51,5.13 L9.51,0.13 C9.81940108,-0.048632795 10.2005989,-0.048632795 10.51,0.13 L19.51,5.13 C19.8167884,5.31187262 20.0034941,5.64337057 20.0000482,6 L20.0000482,11.81 C20.0000482,16.33 16.72,20.48 11.22,22.91 C11.0912398,22.9686689 10.9514949,22.9993446 10.81,23 Z M9.4,21 L10.6,21 C15.24,18.89 18,15.47 18,11.81 L18,6.59 L10,2.14 L2,6.59 L2,11.81 C2,15.47 4.76,18.89 9.4,21 Z"
                  id="Shape" fill="#F8D12C"></path>
            <path d="M12.0000367,11 C12.0058471,10.0279215 11.3118835,9.19241242 10.3552416,9.01976554 C9.39859965,8.84711866 8.45635577,9.38733848 8.12203579,10.3001369 C7.78771581,11.2129352 8.15815028,12.2339344 9,12.72 L9,14 C9,14.5522847 9.44771525,15 10,15 C10.5522847,15 11,14.5522847 11,14 L11,12.72 C11.6150891,12.3648954 11.9957131,11.7102221 12.0000367,11 Z"
                  id="Path" fill="#464646"></path>
        </g>
    </g>
</svg>
