<?xml version="1.0" encoding="UTF-8"?>
<svg width="280px" height="101px" viewBox="0 0 280 101" version="1.1" xmlns="http://www.w3.org/2000/svg">
    <title>Group 2</title>
    <defs>
        <linearGradient x1="36.9740407%" y1="34.7526638%" x2="66.0763516%" y2="60.6772113%" id="linearGradient-1">
            <stop stop-color="#F36E42" offset="0%"></stop>
            <stop stop-color="#F58460" offset="100%"></stop>
        </linearGradient>
        <linearGradient x1="75.0785754%" y1="25.257952%" x2="18.7465953%" y2="81.8568565%" id="linearGradient-2">
            <stop stop-color="#E66233" offset="0%"></stop>
            <stop stop-color="#F36E42" offset="100%"></stop>
        </linearGradient>
    </defs>
    <g id="Mockup-1.0" stroke="none" stroke-width="1" fill="none" fill-rule="evenodd">
        <g id="Artboard" transform="translate(-132.000000, -121.000000)">
            <g id="Group-2" transform="translate(132.600000, 121.000000)">
                <g id="Group" transform="translate(131.088000, 18.528000)" fill-rule="nonzero">
                    <path d="M8.36012862,59.2282958 L8.36012862,23.2154341 L2.84217094e-14,23.2154341 L2.84217094e-14,59.2282958 L8.36012862,59.2282958 Z M25.3376206,59.2282958 L25.3376206,44.1157556 C25.3376206,42.4866024 25.6806002,41.1897106 26.3665595,40.2250804 C27.0525188,39.2604502 28.0600214,38.5423365 29.3890675,38.0707395 L29.3890675,38.0707395 L23.9871383,33.5048232 C24.2872454,32.9474812 24.7266881,32.4008574 25.3054662,31.8649518 C25.8842444,31.3290461 26.5487674,30.8574491 27.2990354,30.4501608 C28.0493033,30.0428725 28.86388,29.721329 29.7427653,29.4855305 C30.6216506,29.249732 31.511254,29.1318328 32.4115756,29.1318328 C34.812433,29.1318328 36.7095391,29.7749196 38.1028939,31.0610932 C39.4962487,32.3472669 40.192926,34.2765273 40.192926,36.8488746 L40.192926,36.8488746 L40.192926,59.2282958 L48.5530547,59.2282958 L48.5530547,36.8488746 C48.5530547,34.7481243 48.1993569,32.8081458 47.4919614,31.0289389 C46.7845659,29.249732 45.755627,27.7277599 44.4051447,26.4630225 C43.0546624,25.1982851 41.3933548,24.2122186 39.4212219,23.5048232 C37.449089,22.7974277 35.1768489,22.4437299 32.6045016,22.4437299 C30.375134,22.4437299 28.2958199,22.7652733 26.3665595,23.4083601 C24.437299,24.0514469 22.7224009,24.8981779 21.221865,25.9485531 C19.721329,26.9989282 18.4458735,28.1993569 17.3954984,29.5498392 C16.3451233,30.9003215 15.6055734,32.3043944 15.1768489,33.7620579 L15.1768489,33.7620579 L20.3858521,38.0064309 C19.3997856,38.6066452 18.585209,39.4426581 17.9421222,40.5144695 C17.2990354,41.5862808 16.977492,42.8081458 16.977492,44.1800643 L16.977492,44.1800643 L16.977492,59.2282958 L25.3376206,59.2282958 Z M30.4180064,19.0353698 C31.9185423,19.0353698 33.1618435,18.6923901 34.14791,18.0064309 C35.1339764,17.3204716 35.8628081,16.4630225 36.3344051,15.4340836 C36.8488746,16.4201501 37.5562701,17.2132905 38.4565916,17.8135048 C39.3569132,18.4137192 40.3429796,18.7138264 41.414791,18.7138264 L41.414791,18.7138264 L46.3665595,18.7138264 L46.3665595,12.9903537 L41.1575563,12.9903537 C40.3858521,12.9903537 39.7534834,12.8188639 39.2604502,12.4758842 C38.7674169,12.1329046 38.4351554,11.6613076 38.2636656,11.0610932 L38.2636656,11.0610932 L34.2122186,11.1254019 C34.0407288,11.8971061 33.6655949,12.550911 33.0868167,13.0868167 C32.5080386,13.6227224 31.789925,13.8906752 30.9324759,13.8906752 C30.2036442,13.8906752 29.5819936,13.6441586 29.0675241,13.1511254 C28.5530547,12.6580922 28.2958199,12.0257235 28.2958199,11.2540193 C28.2958199,9.58199357 29.4105038,8.74598071 31.6398714,8.74598071 L31.6398714,8.74598071 L46.3022508,8.74598071 L46.3022508,3.02250804 L31.4469453,3.02250804 C29.903537,3.02250804 28.5316184,3.24758842 27.3311897,3.6977492 C26.130761,4.14790997 25.1339764,4.75884244 24.340836,5.53054662 C23.5476956,6.3022508 22.9474812,7.18113612 22.5401929,8.16720257 C22.1329046,9.15326902 21.9292605,10.1607717 21.9292605,11.1897106 C21.9292605,13.7620579 22.7224009,15.7127546 24.3086817,17.0418006 C25.8949625,18.3708467 27.9314041,19.0353698 30.4180064,19.0353698 Z M72.7974277,60 C77.8135048,60 81.7148982,58.7995713 84.5016077,56.3987138 C87.2883173,53.9978564 88.681672,50.375134 88.681672,45.5305466 L88.681672,45.5305466 L88.681672,23.2154341 L80.3215434,23.2154341 L80.3215434,45.5305466 C80.3215434,48.017149 79.6570204,49.9356913 78.3279743,51.2861736 C76.9989282,52.6366559 75.1554126,53.3118971 72.7974277,53.3118971 C70.4394427,53.3118971 68.5959271,52.6366559 67.266881,51.2861736 C65.9378349,49.9356913 65.2733119,48.017149 65.2733119,45.5305466 L65.2733119,45.5305466 L65.2733119,23.2154341 L56.9131833,23.2154341 L56.9131833,45.5305466 C56.9131833,50.375134 58.306538,53.9978564 61.0932476,56.3987138 C63.8799571,58.7995713 67.7813505,60 72.7974277,60 Z M107.909968,59.2282958 L107.909968,17.5562701 C107.909968,14.8553055 108.392283,12.4973205 109.356913,10.4823151 C110.321543,8.46730975 111.87567,6.98821008 114.019293,6.04501608 L114.019293,6.04501608 L114.019293,0 L92.8617363,0 L92.8617363,6.62379421 L105.273312,6.62379421 C103.344051,7.60986066 101.897106,9.06752412 100.932476,10.9967846 C99.9678457,12.926045 99.4855305,15.3054662 99.4855305,18.1350482 L99.4855305,18.1350482 L99.4855305,59.2282958 L107.909968,59.2282958 Z M126.623794,60 C131.982851,60 136.173633,58.4030011 139.196141,55.2090032 C142.21865,52.0150054 143.729904,47.2025723 143.729904,40.7717042 C143.729904,34.8981779 142.240086,30.375134 139.26045,27.2025723 C136.280815,24.0300107 132.090032,22.4437299 126.688103,22.4437299 C124.37299,22.4437299 122.10075,22.7974277 119.871383,23.5048232 C117.642015,24.2122186 115.648446,25.1446945 113.890675,26.3022508 L113.890675,26.3022508 L115.819936,32.6045016 C117.406217,31.4898178 119.024652,30.6323687 120.675241,30.0321543 C122.325831,29.43194 124.051447,29.1318328 125.85209,29.1318328 C128.810289,29.1318328 131.13612,30.1071811 132.829582,32.0578778 C134.523044,34.0085745 135.369775,37.0632369 135.369775,41.221865 C135.369775,45.2090032 134.565916,48.2207931 132.958199,50.2572347 C131.350482,52.2936763 129.003215,53.3118971 125.916399,53.3118971 C124.115756,53.3118971 122.347267,53.0117899 120.610932,52.4115756 C118.874598,51.8113612 117.277599,51.0825295 115.819936,50.2250804 L115.819936,50.2250804 L113.890675,56.7202572 C115.391211,57.7920686 117.245445,58.6066452 119.453376,59.1639871 C121.661308,59.721329 124.051447,60 126.623794,60 Z M143.472669,18.7138264 L143.472669,12.2829582 L135.948553,12.2829582 C135.348339,12.2829582 135.048232,11.9614148 135.048232,11.318328 L135.048232,11.318328 L135.048232,9.96784566 C135.048232,8.72454448 134.673098,7.81350482 133.92283,7.23472669 C133.172562,6.65594855 132.154341,6.36655949 130.868167,6.36655949 L130.868167,6.36655949 L123.987138,6.36655949 L123.987138,12.9903537 L127.78135,12.9903537 C128.381565,12.9903537 128.681672,13.3118971 128.681672,13.9549839 L128.681672,13.9549839 L128.681672,15.562701 C128.681672,16.5487674 128.992497,17.3204716 129.614148,17.8778135 C130.235798,18.4351554 131.039657,18.7138264 132.025723,18.7138264 L132.025723,18.7138264 L143.472669,18.7138264 Z" id="เก็บไว้" fill="#FFE5AB"></path>
                    <path d="M11.3601286,61.2282958 L11.3601286,25.2154341 L3,25.2154341 L3,61.2282958 L11.3601286,61.2282958 Z M28.3376206,61.2282958 L28.3376206,46.1157556 C28.3376206,44.4866024 28.6806002,43.1897106 29.3665595,42.2250804 C30.0525188,41.2604502 31.0600214,40.5423365 32.3890675,40.0707395 L32.3890675,40.0707395 L26.9871383,35.5048232 C27.2872454,34.9474812 27.7266881,34.4008574 28.3054662,33.8649518 C28.8842444,33.3290461 29.5487674,32.8574491 30.2990354,32.4501608 C31.0493033,32.0428725 31.86388,31.721329 32.7427653,31.4855305 C33.6216506,31.249732 34.511254,31.1318328 35.4115756,31.1318328 C37.812433,31.1318328 39.7095391,31.7749196 41.1028939,33.0610932 C42.4962487,34.3472669 43.192926,36.2765273 43.192926,38.8488746 L43.192926,38.8488746 L43.192926,61.2282958 L51.5530547,61.2282958 L51.5530547,38.8488746 C51.5530547,36.7481243 51.1993569,34.8081458 50.4919614,33.0289389 C49.7845659,31.249732 48.755627,29.7277599 47.4051447,28.4630225 C46.0546624,27.1982851 44.3933548,26.2122186 42.4212219,25.5048232 C40.449089,24.7974277 38.1768489,24.4437299 35.6045016,24.4437299 C33.375134,24.4437299 31.2958199,24.7652733 29.3665595,25.4083601 C27.437299,26.0514469 25.7224009,26.8981779 24.221865,27.9485531 C22.721329,28.9989282 21.4458735,30.1993569 20.3954984,31.5498392 C19.3451233,32.9003215 18.6055734,34.3043944 18.1768489,35.7620579 L18.1768489,35.7620579 L23.3858521,40.0064309 C22.3997856,40.6066452 21.585209,41.4426581 20.9421222,42.5144695 C20.2990354,43.5862808 19.977492,44.8081458 19.977492,46.1800643 L19.977492,46.1800643 L19.977492,61.2282958 L28.3376206,61.2282958 Z M33.4180064,21.0353698 C34.9185423,21.0353698 36.1618435,20.6923901 37.14791,20.0064309 C38.1339764,19.3204716 38.8628081,18.4630225 39.3344051,17.4340836 C39.8488746,18.4201501 40.5562701,19.2132905 41.4565916,19.8135048 C42.3569132,20.4137192 43.3429796,20.7138264 44.414791,20.7138264 L44.414791,20.7138264 L49.3665595,20.7138264 L49.3665595,14.9903537 L44.1575563,14.9903537 C43.3858521,14.9903537 42.7534834,14.8188639 42.2604502,14.4758842 C41.7674169,14.1329046 41.4351554,13.6613076 41.2636656,13.0610932 L41.2636656,13.0610932 L37.2122186,13.1254019 C37.0407288,13.8971061 36.6655949,14.550911 36.0868167,15.0868167 C35.5080386,15.6227224 34.789925,15.8906752 33.9324759,15.8906752 C33.2036442,15.8906752 32.5819936,15.6441586 32.0675241,15.1511254 C31.5530547,14.6580922 31.2958199,14.0257235 31.2958199,13.2540193 C31.2958199,11.5819936 32.4105038,10.7459807 34.6398714,10.7459807 L34.6398714,10.7459807 L49.3022508,10.7459807 L49.3022508,5.02250804 L34.4469453,5.02250804 C32.903537,5.02250804 31.5316184,5.24758842 30.3311897,5.6977492 C29.130761,6.14790997 28.1339764,6.75884244 27.340836,7.53054662 C26.5476956,8.3022508 25.9474812,9.18113612 25.5401929,10.1672026 C25.1329046,11.153269 24.9292605,12.1607717 24.9292605,13.1897106 C24.9292605,15.7620579 25.7224009,17.7127546 27.3086817,19.0418006 C28.8949625,20.3708467 30.9314041,21.0353698 33.4180064,21.0353698 Z M75.7974277,62 C80.8135048,62 84.7148982,60.7995713 87.5016077,58.3987138 C90.2883173,55.9978564 91.681672,52.375134 91.681672,47.5305466 L91.681672,47.5305466 L91.681672,25.2154341 L83.3215434,25.2154341 L83.3215434,47.5305466 C83.3215434,50.017149 82.6570204,51.9356913 81.3279743,53.2861736 C79.9989282,54.6366559 78.1554126,55.3118971 75.7974277,55.3118971 C73.4394427,55.3118971 71.5959271,54.6366559 70.266881,53.2861736 C68.9378349,51.9356913 68.2733119,50.017149 68.2733119,47.5305466 L68.2733119,47.5305466 L68.2733119,25.2154341 L59.9131833,25.2154341 L59.9131833,47.5305466 C59.9131833,52.375134 61.306538,55.9978564 64.0932476,58.3987138 C66.8799571,60.7995713 70.7813505,62 75.7974277,62 Z M110.909968,61.2282958 L110.909968,19.5562701 C110.909968,16.8553055 111.392283,14.4973205 112.356913,12.4823151 C113.321543,10.4673098 114.87567,8.98821008 117.019293,8.04501608 L117.019293,8.04501608 L117.019293,2 L95.8617363,2 L95.8617363,8.62379421 L108.273312,8.62379421 C106.344051,9.60986066 104.897106,11.0675241 103.932476,12.9967846 C102.967846,14.926045 102.485531,17.3054662 102.485531,20.1350482 L102.485531,20.1350482 L102.485531,61.2282958 L110.909968,61.2282958 Z M129.623794,62 C134.982851,62 139.173633,60.4030011 142.196141,57.2090032 C145.21865,54.0150054 146.729904,49.2025723 146.729904,42.7717042 C146.729904,36.8981779 145.240086,32.375134 142.26045,29.2025723 C139.280815,26.0300107 135.090032,24.4437299 129.688103,24.4437299 C127.37299,24.4437299 125.10075,24.7974277 122.871383,25.5048232 C120.642015,26.2122186 118.648446,27.1446945 116.890675,28.3022508 L116.890675,28.3022508 L118.819936,34.6045016 C120.406217,33.4898178 122.024652,32.6323687 123.675241,32.0321543 C125.325831,31.43194 127.051447,31.1318328 128.85209,31.1318328 C131.810289,31.1318328 134.13612,32.1071811 135.829582,34.0578778 C137.523044,36.0085745 138.369775,39.0632369 138.369775,43.221865 C138.369775,47.2090032 137.565916,50.2207931 135.958199,52.2572347 C134.350482,54.2936763 132.003215,55.3118971 128.916399,55.3118971 C127.115756,55.3118971 125.347267,55.0117899 123.610932,54.4115756 C121.874598,53.8113612 120.277599,53.0825295 118.819936,52.2250804 L118.819936,52.2250804 L116.890675,58.7202572 C118.391211,59.7920686 120.245445,60.6066452 122.453376,61.1639871 C124.661308,61.721329 127.051447,62 129.623794,62 Z M146.472669,20.7138264 L146.472669,14.2829582 L138.948553,14.2829582 C138.348339,14.2829582 138.048232,13.9614148 138.048232,13.318328 L138.048232,13.318328 L138.048232,11.9678457 C138.048232,10.7245445 137.673098,9.81350482 136.92283,9.23472669 C136.172562,8.65594855 135.154341,8.36655949 133.868167,8.36655949 L133.868167,8.36655949 L126.987138,8.36655949 L126.987138,14.9903537 L130.78135,14.9903537 C131.381565,14.9903537 131.681672,15.3118971 131.681672,15.9549839 L131.681672,15.9549839 L131.681672,17.562701 C131.681672,18.5487674 131.992497,19.3204716 132.614148,19.8778135 C133.235798,20.4351554 134.039657,20.7138264 135.025723,20.7138264 L135.025723,20.7138264 L146.472669,20.7138264 Z" id="เก็บไว้" fill="#E8541A"></path>
                </g>
                <g id="Group-9" transform="translate(-0.000000, 0.000000)">
                    <g id="head" transform="translate(0.118694, 13.649852)">
                        <path d="M3.15764261,39.8936696 C0.947292784,40.8864985 3.29297015,44.4967854 3.02231507,47.2947577 C0.811965243,69.9493076 21.6072973,78.6591246 49.7554257,79.6068249 C77.9486634,79.2457962 98.1124669,71.212908 96.3532089,48.5132295 C96.127663,45.7152572 99.8266157,41.8793274 97.6162659,40.8413699 C90.4439063,37.4115974 87.0156086,26.6258655 78.8959561,18.0965628 C76.7307155,11.9139466 71.0469588,0.361028684 65.1376562,0.496414441 C61.8897952,0.586671612 59.5441178,3.7456726 57.9201874,7.26570227 C55.7098375,6.90467359 53.319051,6.72415925 50.7478277,6.67903066 C48.0863861,6.63390208 45.6053812,6.81441642 43.3499222,7.1754451 C41.7711009,3.56515826 39.4705327,0.361028684 36.2226717,0.225642928 C29.7720589,-0.0451285856 23.3214462,13.5837043 21.6072973,19.0893917 C14.1191734,27.1674085 9.92401964,36.8249258 3.15764261,39.8936696 Z" id="Path" fill="#E75419"></path>
                        <path d="M36.3579992,9.74777448 C36.8542002,7.35595945 36.8993094,4.01644411 35.2753789,3.61028684 C32.0275179,2.84310089 26.4339796,13.4934471 26.027997,15.1180762 C25.5769052,17.0586053 34.6889596,17.8709199 36.3579992,9.74777448 L36.3579992,9.74777448 Z M64.8218919,10.018546 C64.3708001,7.62673096 64.4159093,4.24208704 66.0398398,3.92618694 C69.2877008,3.24925816 74.6556932,13.9898615 75.0165666,15.6144906 C75.4225493,17.5550198 66.3104949,18.18682 64.8218919,10.018546 Z" id="Shape" fill="#FF8253"></path>
                        <path d="M49.8005349,85.7443126 L49.8005349,85.7443126 C33.7416668,86.240727 6.76637703,76.5380811 1.35327541,55.3276459 C-0.405982622,48.5132295 -1.26305705,39.8034125 4.15004458,39.8936696 C12.3148062,40.0290554 16.3746324,34.9295252 19.8480393,31.1838526 C38.7036766,11.0565035 36.8993094,67.512364 49.9809716,70.4457221 C63.1077431,67.7380069 62.4311054,11.2821464 80.8807601,31.7705242 C84.3090578,35.5613254 88.2335564,40.7511128 96.3983181,40.7962413 C101.81142,40.8413699 100.728799,49.5060584 98.879323,56.2753462 C93.0151295,77.3955242 65.8594031,86.5566271 49.8005349,85.7443126 L49.8005349,85.7443126 Z" id="Path" fill="url(#linearGradient-1)"></path>
                        <path d="M77.0915889,31.90591 C75.3774401,31.4546241 74.114383,34.1172107 72.7611076,34.8843966 C71.1371772,35.7869683 69.4681375,35.1100396 69.603465,32.6279674 C69.8741201,28.7920376 75.3774401,27.3930514 77.0915889,31.90591 Z" id="Path" fill="#FFE3AD"></path>
                        <path d="M49.9809716,67.9636499 C42.4928477,68.7759644 34.9145055,61.735905 28.779657,60.111276 C16.0588681,56.726632 15.0664662,73.7852374 30.4938058,81.7278684 C36.8993094,85.0222552 44.7934159,86.0602127 49.8005349,86.240727 L49.8005349,86.240727 L49.8005349,86.240727 C54.8076539,86.1504698 62.7017605,85.2930267 69.1974824,82.1340257 C84.7601496,74.5072948 84.128621,57.4035608 71.3627231,60.5625618 C65.1827654,62.0518051 57.4690956,68.9113501 49.9809716,67.9636499 Z" id="Path" fill="#FFE3AD"></path>
                        <path d="M47.0037658,85.7443126 C38.1172573,84.1648121 31.1704435,80.5093966 27.3361632,76.6283383 C21.8779524,71.1226508 21.9230616,64.0374629 28.8247661,63.5861771 C33.8769943,63.2251484 39.3352051,67.7380069 44.3874333,68.9564787 C43.5303589,68.2344214 42.8988304,67.3769782 42.4477386,66.5646637 C37.5759471,64.5790059 32.8845924,61.194362 28.779657,60.111276 C18.9007465,57.493818 16.013759,66.9256924 22.2388258,75.0488378 C24.1334114,77.53091 26.8850714,79.8775964 30.538915,81.7278684 C33.2454658,83.081726 36.1775625,84.0745549 39.06455,84.7514837 C43.1243763,85.699184 47.0939841,86.1053412 50.07119,86.240727 L50.07119,86.240727 L50.07119,86.240727 C50.2065175,86.240727 50.3418451,86.240727 50.5222818,86.240727 C49.3494431,86.1053412 48.1766044,85.9248269 47.0037658,85.7443126 Z" id="Path" fill="#F4CC7D"></path>
                    </g>
                    <g id="mouth" transform="translate(35.133531, 74.183976)">
                        <path d="M14.8367953,11.458245 C12.5328845,15.0080543 6.5246468,12.6265367 3.04619337,11.5481136 C1.91682537,11.1886393 0.922981532,11.143705 0.0194871341,11.3234421 C0.0194871341,11.3234421 1.41990345,11.2335735 2.82031977,11.8177194 C5.98255016,13.1657482 9.91275079,15.2327257 14.7916205,15.3675286 L14.7916205,15.3675286 C19.6704903,15.3225943 23.6458656,13.3454854 26.8532707,12.0423908 C28.2536871,11.5031793 29.6541034,11.5930479 29.6541034,11.5930479 C28.7957837,11.3683764 27.7567651,11.4133107 26.6273971,11.7278508 C23.103769,12.8062738 17.0503565,15.0529886 14.8367953,11.458245 Z" id="Path" fill="#702F1D"></path>
                        <path d="M14.8367953,10.6044934 C8.28646087,10.4696905 5.71150184,4.13395507 6.43429736,2.24671471 C6.5246468,2.02204324 6.70534568,1.79737177 7.02156871,1.61763459 C8.37681031,0.763883001 11.6293901,0.224671471 14.9723194,0.179737177 C18.270074,0.269605765 21.5678285,0.898685884 22.8778954,1.75243747 C23.1941184,1.97710894 23.3748173,2.15684612 23.4651667,2.38151759 C24.0976128,4.31369224 21.3871296,10.6044934 14.8367953,10.6044934 Z" id="Path" fill="#702F1D"></path>
                        <path d="M11.9456132,2.69605765 C12.4425351,1.70750318 15.1078436,1.12335735 17.9086762,1.34802883 C20.7095088,1.5727003 22.6068471,2.56125477 22.1099252,3.54980924 C21.6130032,4.53836371 18.9476948,5.12250954 16.1468621,4.89783807 C13.3008548,4.6731666 11.4486913,3.68461212 11.9456132,2.69605765 Z" id="Path" fill="#863A25"></path>
                        <path d="M20.1222375,14.0644341 C24.6397095,13.2106825 22.290624,6.60534125 22.5616724,4.71810089 C22.7875459,3.01059771 24.1427875,2.291649 25.4528544,2.42645189 C27.9826387,2.69605765 28.8409584,5.48198389 28.7957837,7.63883001 C28.750609,9.12166172 28.2988618,10.379822 27.8471146,11.4133107 C26.6725719,13.9296312 22.5616724,14.3789741 20.1222375,14.0644341 Z" id="Path" fill="#FF5545"></path>
                        <path d="M23.1489437,5.61678677 C23.1941184,7.68376431 24.3234864,10.6494277 22.6068471,13.1657482 C25.6335533,12.1322594 26.6725719,8.17804154 26.2208247,5.30224671 C25.7690775,2.51632047 23.103769,3.01059771 23.1489437,5.61678677 Z" id="Path" fill="#FF7A6E"></path>
                    </g>
                    <g id="eyes" transform="translate(17.329377, 49.258160)">
                        <path d="M64.9567008,3.21793604 C69.3681746,16.330366 60.7703022,26.9645016 45.2851289,22.864051 C47.4008357,16.2853061 45.9153394,-7.1458402 64.9567008,3.21793604 Z" id="Path" fill="url(#linearGradient-2)"></path>
                        <path d="M1.17039101,2.63215738 C-3.24108278,15.7445873 5.3567896,26.3787229 20.8419629,22.2782723 C18.7262561,15.6995274 20.2567674,-7.73161886 1.17039101,2.63215738 Z" id="Path" fill="#D84A11"></path>
                        <path d="M62.4808737,4.43455325 C63.7863098,8.35476426 64.5515654,12.0046159 62.3458285,16.4204858 C61.3554977,18.4481811 59.5999112,19.5296186 58.1144149,20.7912957 C54.693272,23.7652489 50.5969034,23.8553687 44.6099033,22.2332124 C46.54555,16.2853061 45.1500838,-4.98296516 62.4808737,4.43455325 L62.4808737,4.43455325 Z M3.69123317,3.84877459 C2.29576697,7.7689856 1.48549628,11.3737773 3.60120309,15.8347071 C4.59153394,17.9074624 6.30210541,18.9888999 7.74258665,20.2956369 C11.0736995,23.31465 15.170068,23.4948895 21.2020832,22.007913 C19.4014817,16.0149467 21.1570682,-5.20826464 3.69123317,3.84877459 Z" id="Shape" fill="#702F1D"></path>
                        <path d="M21.1570682,22.007913 C21.0220231,21.7375536 20.931993,21.4671942 20.7969479,21.1968348 C16.1603989,24.8466864 10.2634288,22.1430926 9.318113,17.4118035 C8.59787238,13.8520717 10.2634288,9.66150126 15.3051131,8.17452467 C14.4498274,6.91284757 13.4594966,5.92152984 12.3341206,5.24563139 C5.76192495,1.41554017 -0.225075193,9.88680075 4.45648883,17.7722827 C7.29243626,22.3683921 13.1894063,25.3874052 21.1570682,22.007913 L21.1570682,22.007913 Z M44.6099033,22.2332124 C44.7449484,21.9628531 44.8799935,21.6924937 44.9700236,21.4221343 C49.5615576,25.1621057 55.5035427,22.5486317 56.4938735,17.8624025 C57.2591292,14.3026706 55.6836028,10.1121002 50.6869335,8.53500385 C51.5872343,7.31838664 52.5775652,6.28200901 53.7029411,5.65117046 C60.3651668,1.95625893 66.1721068,10.5176393 61.3104827,18.3130014 C58.5195503,22.9091109 52.5325501,25.7929443 44.6099033,22.2332124 Z" id="Shape" fill="#FFFFFF"></path>
                        <path d="M53.0277155,12.0046159 C51.5422193,11.8694362 50.1467531,13.6718321 49.8766628,15.9698868 C49.6515876,18.3130014 50.6419185,20.2956369 52.1274148,20.4308166 C53.612911,20.5659963 55.0083772,18.7636004 55.2784675,16.4655457 C55.5485577,14.122431 54.5582269,12.1397956 53.0277155,12.0046159 L53.0277155,12.0046159 Z M12.829286,11.5990768 C14.3147823,11.508957 15.6652335,13.3113529 15.8903086,15.6544675 C16.0703688,17.9975822 15.0350229,19.9802176 13.5495266,20.0703374 C12.0640304,20.1604572 10.7135792,18.3580613 10.488504,16.0149467 C10.2634288,13.6718321 11.2987747,11.6891966 12.829286,11.5990768 Z" id="Shape" fill="#863A25"></path>
                        <path d="M55.5935727,11.8243763 C54.3331517,11.7342565 53.2978058,12.9508737 53.2978058,14.4829102 C53.2978058,16.0600066 54.3331517,17.4118035 55.5935727,17.5019233 C56.8539938,17.5920431 57.8893397,16.3754259 57.8893397,14.8433894 C57.8893397,13.266293 56.8539938,11.9144961 55.5935727,11.8243763 L55.5935727,11.8243763 Z M10.3984739,11.3737773 C11.658895,11.3287174 12.6942409,12.5453347 12.6492259,14.122431 C12.6042108,15.6995274 11.5688649,17.0062644 10.2634288,17.0963842 C9.00300773,17.1414441 7.96766184,15.9248269 8.01267688,14.3477305 C8.05769192,12.7706341 9.13805285,11.4188372 10.3984739,11.3737773 Z" id="Shape" fill="#FFFFFF"></path>
                    </g>
                    <g id="hat" transform="translate(8.724036, 0.000000)">
                        <path d="M71.5496559,40.4031515 C71.8656481,40.2680855 72.226782,40.0879975 72.6330576,39.8628875 C76.9666646,37.4767216 84.0539175,32.6593676 84.5053349,28.8324977 C85.182461,23.0696818 75.1158533,20.0982298 70.2856872,19.6480098 C74.8901446,29.2376957 76.2895385,36.5762816 76.2895385,36.5762816 C76.4249637,37.3416556 74.7095776,38.7373376 71.5496559,40.4031515 Z" id="Path" fill="#F96B18"></path>
                        <path d="M76.2895385,36.5762816 C76.2895385,36.5762816 74.122735,25.1406937 66.177789,12.0843139 C61.0316308,3.62017804 47.3085422,-1.42228589 31.3283667,0.378594086 C15.6190416,3.80026604 4.24332344,12.9847539 2.07651998,22.6194618 C-1.26396868,37.5667656 0.857693036,49.0023534 0.857693036,49.0023534 C1.21882695,51.2084314 19.6366564,53.4595314 40.4921397,50.0378594 C61.3024812,46.5711655 76.6506724,38.7823596 76.2895385,36.5762816 L76.2895385,36.5762816 Z M53.0866848,39.6827995 C53.22211,40.5832395 47.0828335,43.6897575 38.7316118,45.0404175 C30.3803902,46.3910775 23.0222868,45.5356595 22.8868615,44.6352195 C22.8868615,44.6352195 22.0291685,40.0429755 23.3834207,34.1000716 C24.2411137,30.2281797 28.8004293,26.5363757 35.075131,25.1857157 C41.4852579,24.4653638 46.9474083,26.4913537 49.0239283,29.8680037 C52.2289917,35.0905556 53.0866848,39.6827995 53.0866848,39.6827995 Z" id="Shape" fill="#F99E17"></path>
                        <path d="M68.9314351,33.6948736 C68.9314351,33.6948736 67.216049,24.5554078 60.8059221,14.1103039 C56.6980239,7.35700399 45.7285813,3.30502405 32.9083275,4.74572803 C20.3137824,7.44704799 11.2402929,14.8306559 9.52490688,22.5294178 C6.86154429,34.4602476 8.57693036,43.6447355 8.57693036,43.6447355 C8.80263906,44.9953955 17.1990025,46.3010335 28.3941537,45.7607695 C25.1439485,45.6257035 22.977145,45.1754835 22.8868615,44.6802415 C22.8868615,44.6802415 22.0291685,40.0879975 23.3834207,34.1450936 C24.2411137,30.2732017 28.8004293,26.5813977 35.075131,25.2307377 C41.4852579,24.5103858 46.9474083,26.5363757 49.0239283,29.9130257 C52.2289917,35.1355776 53.0866848,39.7278215 53.0866848,39.7278215 C53.1769682,40.3581295 50.287897,42.0239435 45.7285813,43.4646475 C59.5419534,40.3581295 69.2022855,35.2706436 68.9314351,33.6948736 Z" id="Path" fill="#FBAA32"></path>
                        <path d="M41.6658249,48.5971554 C21.7131763,51.8837614 4.01761475,49.7227054 3.70162258,47.6066714 C3.70162258,47.6066714 1.62510259,36.6213036 4.87530778,22.3493298 C6.95182777,13.1198199 17.8309868,4.29550803 32.9083275,1.05392408 C48.03081,-0.6569119 60.986489,4.07039804 66.0875055,11.9492479 C60.8510638,3.57515604 47.2182587,-1.42228589 31.3283667,0.378594086 C15.6190416,3.80026604 4.24332344,12.9847539 2.07651998,22.6194618 C-1.26396868,37.5667656 0.857693036,49.0023534 0.857693036,49.0023534 C1.21882695,51.2084314 19.6366564,53.4595314 40.4921397,50.0378594 C61.347623,46.6161875 76.6958141,38.8273816 76.2895385,36.6213036 C76.2895385,36.6213036 76.2443967,36.3961936 76.1541133,35.9009516 C75.8832628,36.3511716 75.6124124,36.6213036 75.5672707,36.6213036 C73.084475,39.4126676 59.4516699,45.6707255 41.6658249,48.5971554 Z" id="Path" fill="#F9BE67"></path>
                    </g>
                    <g id="hair" transform="translate(28.308605, 36.498516)">
                        <path d="M0.0178914296,12.8907598 C-0.0720020946,8.6743496 1.90565544,5.71389138 3.79341944,3.91967428 C8.10830861,-0.296735905 11.0747949,5.39990339 10.8950079,8.94348216 C10.8500611,8.89862673 4.06310002,8.04637361 0.0178914296,12.8907598 Z" id="Path" fill="#E75419"></path>
                        <path d="M5.95086403,18.8565316 C2.80459068,13.3393141 4.60246116,8.09122904 5.81602374,5.5793251 C6.13065107,4.95134911 7.5240007,3.51597543 9.41176471,3.20198744 C11.9287834,2.75343317 15.0750567,3.82996343 14.9851632,8.22579532 C15.03011,8.22579532 7.38916041,8.58463874 5.95086403,18.8565316 Z" id="Path" fill="#E75419"></path>
                        <path d="M30.132222,11.0965427 C30.8064235,6.20730108 28.4242451,2.75343317 26.5814278,0.86950521 C25.3229185,-0.431302188 23.1205271,0.15181837 21.6822308,1.58719205 C20.0641473,3.15713201 19.3000524,5.71389138 21.9519113,6.16244566 C24.2441962,6.61099993 27.8848839,7.73238562 30.132222,11.0965427 Z" id="Path" fill="#E75419"></path>
                        <path d="M14.1761215,5.35504796 C8.15325537,7.14926506 5.90591726,13.3393141 5.90591726,13.3393141 C5.36655612,8.3603616 9.32187118,2.12545718 14.1761215,5.35504796 Z" id="Path" fill="#F46329"></path>
                        <path d="M6.58011869,6.25215651 C2.93943097,6.47643365 1.05166696,10.3340004 1.05166696,10.3340004 C1.41124105,7.46325305 3.6136324,4.50279484 6.58011869,6.25215651 Z" id="Path" fill="#F46329"></path>
                    </g>
                </g>
            </g>
        </g>
    </g>
</svg>
